<?xml version="1.0" encoding="UTF-8" standalone="no"?>
<svg
   width="40.000141mm"
   height="39.999626mm"
   viewBox="0 0 40.000141 39.999626"
   version="1.1"
   id="svg6"
   inkscape:version="1.1-dev (eff2292, 2020-08-29)"
   sodipodi:docname="trafs4.svg"
   xmlns:inkscape="http://www.inkscape.org/namespaces/inkscape"
   xmlns:sodipodi="http://sodipodi.sourceforge.net/DTD/sodipodi-0.dtd"
   xmlns="http://www.w3.org/2000/svg"
   xmlns:svg="http://www.w3.org/2000/svg">
  <defs
     id="defs2">
    <inkscape:path-effect
       effect="fillet_chamfer"
       id="path-effect838"
       is_visible="true"
       lpeversion="1"
       satellites_param="F,0,0,1,0,0,0,1 @ F,0,0,1,0,7.5761441,0,1 @ F,0,0,1,0,4.5796587,0,1 @ F,0,1,1,0,4.5796587,0,1 @ F,0,0,1,0,8.3908983,0,1 @ F,0,0,1,0,8.3908983,0,1 @ F,0,0,1,0,0,0,1 @ F,0,0,1,0,0,0,1 @ F,0,0,1,0,0,0,1 @ F,0,0,1,0,0,0,1 @ F,0,0,1,0,0,0,1 @ F,0,0,1,0,0,0,1 @ F,0,0,1,0,0,0,1 @ F,0,0,1,0,0,0,1 @ F,0,0,1,0,0,0,1 @ F,0,0,1,0,0,0,1 @ F,0,0,1,0,0,0,1"
       unit="px"
       method="auto"
       mode="F"
       radius="0"
       chamfer_steps="1"
       flexible="false"
       use_knot_distance="true"
       apply_no_radius="true"
       apply_with_radius="true"
       only_selected="false"
       hide_knots="false" />
    <inkscape:path-effect
       effect="fillet_chamfer"
       id="path-effect836"
       is_visible="true"
       lpeversion="1"
       satellites_param="F,0,0,1,0,0,0,1 @ F,0,0,1,0,1.9285116,0,1 @ F,0,0,1,0,1.0730583,0,1 @ F,0,1,1,0,1.0730583,0,1 @ F,0,0,1,0,2.3335566,0,1 @ F,0,0,1,0,2.3335566,0,1 @ F,0,0,1,0,0,0,1 @ F,0,0,1,0,0,0,1 @ F,0,0,1,0,0,0,1 @ F,0,0,1,0,0,0,1 @ F,0,0,1,0,0,0,1 @ F,0,0,1,0,0,0,1 @ F,0,0,1,0,0,0,1 @ F,0,0,1,0,0,0,1 @ F,0,0,1,0,0,0,1 @ F,0,0,1,0,0,0,1 @ F,0,0,1,0,0,0,1"
       unit="px"
       method="auto"
       mode="F"
       radius="0"
       chamfer_steps="1"
       flexible="false"
       use_knot_distance="true"
       apply_no_radius="true"
       apply_with_radius="true"
       only_selected="false"
       hide_knots="false" />
  </defs>
  <sodipodi:namedview
     id="base"
     pagecolor="#ffffff"
     bordercolor="#666666"
     borderopacity="1.0"
     inkscape:pageopacity="0.0"
     inkscape:pageshadow="2"
     inkscape:zoom="3.959798"
     inkscape:cx="82.453702"
     inkscape:cy="92.555227"
     inkscape:document-units="mm"
     inkscape:current-layer="layer1"
     showgrid="false"
     inkscape:window-width="1920"
     inkscape:window-height="1017"
     inkscape:window-x="-8"
     inkscape:window-y="-8"
     inkscape:window-maximized="1"
     fit-margin-top="0"
     fit-margin-left="0"
     fit-margin-right="0"
     fit-margin-bottom="0" />
  <g
     inkscape:label="レイヤー 1"
     inkscape:groupmode="layer"
     id="layer1">
    <path
       id="path868"
       style="fill:#ff3939;fill-opacity:1;stroke:none;stroke-width:10.6248;stroke-linecap:round"
       d="m 63.138672,101.38086 2.507812,10.02734 c 12.388791,4.33187 27.514546,-0.78196 35.724606,-8.28125 L 98.710938,92.486328 Z"
       transform="scale(0.26458333)" />
    <path
       id="path914"
       style="fill:#ff2a2a;fill-opacity:1;stroke:none;stroke-width:10.6248;stroke-linecap:round"
       d="M 88.929688,53.357422 53.357422,62.25 39.773438,65.646484 c -1.103068,3.210557 -1.768559,6.555093 -1.978516,9.94336 0.07817,9.591715 3.800358,18.794906 10.412109,25.744136 L 62.25,97.824219 97.822266,88.929688 112.04297,85.375 c 3.37972,-12.433153 -1.59066,-27.436903 -9.06836,-35.527344 z"
       transform="scale(0.26458333)" />
    <path
       id="path912"
       style="fill:#ff3939;fill-opacity:1;stroke:none;stroke-width:10.6248;stroke-linecap:round"
       d="m 88.929688,53.357422 14.044922,-3.509766 c -6e-4,-6.49e-4 -0.001,-0.0013 -0.002,-0.002 z"
       transform="scale(0.26458333)" />
    <path
       id="path853"
       style="fill:#ff8a3d;fill-opacity:1;stroke:none;stroke-width:14.6079;stroke-linecap:round"
       d="m 113.38672,103.87695 v 11.37894 c 0,4.18418 -3.29062,8.39904 -7.34983,9.41408 -10.149787,2.53803 -20.299641,5.07581 -30.449479,7.61366 -2.453736,0.61353 -3.945486,3.10004 -3.33192,5.55376 l 2.225346,8.89944 a 5.8658311,5.8658311 37.980399 0 0 5.690619,4.44286 h 62.619284 a 8.3908983,8.3908983 135 0 0 8.3909,-8.3909 V 46.183867 A 6.5513332,6.5513332 37.981529 0 0 143.0413,39.82816 l -29.65458,7.414028 v 0.06055 c 1.13053,1.491571 2.17143,3.049003 3.11719,4.664063 1.03147,1.785991 1.94488,3.637609 2.73437,5.542969 0.7891,1.905082 1.45263,3.859783 1.98633,5.851562 0.5336,1.992361 0.93616,4.017528 1.20508,6.0625 0.26918,2.044314 0.40423,4.104057 0.40429,6.166016 -6e-5,2.061959 -0.13511,4.121702 -0.40429,6.166015 -0.26892,2.044972 -0.67148,4.070139 -1.20508,6.0625 -0.5337,1.991779 -1.19723,3.94648 -1.98633,5.851563 -0.78957,1.904694 -1.70298,3.755657 -2.73437,5.541016 -0.9457,1.615718 -1.98659,3.173808 -3.11719,4.666008 z"
       transform="scale(0.26458333)"
       inkscape:path-effect="#path-effect838"
       inkscape:original-d="m 113.38672,103.87695 v 18.95508 c -14.08064,3.52119 -28.161442,7.04173 -42.242189,10.5625 l 4.447266,17.78516 c 25.196613,0 50.393233,0 75.589843,0 0,-37.79557 0,-75.591147 0,-113.386721 l -37.79492,9.449219 v 0.06055 c 1.13053,1.491571 2.17143,3.049003 3.11719,4.664063 1.03147,1.785991 1.94488,3.637609 2.73437,5.542969 0.7891,1.905082 1.45263,3.859783 1.98633,5.851562 0.5336,1.992361 0.93616,4.017528 1.20508,6.0625 0.26918,2.044314 0.40423,4.104057 0.40429,6.166016 -6e-5,2.061959 -0.13511,4.121702 -0.40429,6.166015 -0.26892,2.044972 -0.67148,4.070139 -1.20508,6.0625 -0.5337,1.991779 -1.19723,3.94648 -1.98633,5.851563 -0.78957,1.904694 -1.70298,3.755657 -2.73437,5.541016 -0.9457,1.615718 -1.98659,3.173808 -3.11719,4.666008 z"
       sodipodi:nodetypes="cccccccccccccccccc" />
    <path
       id="path834"
       style="fill:#ff8a3d;fill-opacity:1;stroke:none;stroke-width:3.86501;stroke-linecap:round"
       d="M 9.999906,12.515517 V 9.4288306 c 0,-1.0650875 0.83763,-2.1379813 1.870902,-2.3963602 2.754879,-0.6888816 5.509775,-1.3776903 8.264667,-2.0665196 0.574934,-0.1437556 0.924466,-0.7263681 0.780701,-1.3012998 L 20.260122,1.041006 A 1.3744208,1.3744208 37.980401 0 0 18.926755,0 H 2.3335566 A 2.3335566,2.3335566 135 0 0 0,2.3335566 V 27.66668 a 1.821963,1.821963 37.981529 0 0 2.2638755,1.767559 L 9.999906,27.500131 v -0.01602 C 9.7007863,27.089466 9.4253819,26.677396 9.175149,26.250078 8.9022397,25.777535 8.6605667,25.287627 8.451681,24.783501 8.242898,24.279448 8.0673392,23.762267 7.926131,23.235275 7.7849491,22.708129 7.6784399,22.172304 7.607287,21.631238 7.5360676,21.090347 7.5003352,20.545373 7.500319,19.999813 c 1.62e-5,-0.54556 0.035749,-1.090534 0.106968,-1.631425 0.071153,-0.541066 0.1776621,-1.076891 0.318844,-1.604037 0.1412083,-0.526991 0.3167671,-1.044172 0.52555,-1.548225 0.2089062,-0.50395 0.4505789,-0.993684 0.723468,-1.46606 0.2502154,-0.427494 0.5256201,-0.839737 0.824757,-1.234549 z"
       inkscape:path-effect="#path-effect836"
       inkscape:original-d="M 9.999906,12.515517 V 7.500319 C 13.725409,6.5686699 17.450954,5.6371931 21.176485,4.705657 L 19.999813,0 C 13.333209,0 6.6666043,0 0,0 0,10.000079 0,20.000158 0,30.000237 l 9.999906,-2.500106 v -0.01602 C 9.7007863,27.089466 9.4253819,26.677396 9.175149,26.250078 8.9022397,25.777535 8.6605667,25.287627 8.451681,24.783501 8.242898,24.279448 8.0673392,23.762267 7.926131,23.235275 7.7849491,22.708129 7.6784399,22.172304 7.607287,21.631238 7.5360676,21.090347 7.5003352,20.545373 7.500319,19.999813 c 1.62e-5,-0.54556 0.035749,-1.090534 0.106968,-1.631425 0.071153,-0.541066 0.1776621,-1.076891 0.318844,-1.604037 0.1412083,-0.526991 0.3167671,-1.044172 0.52555,-1.548225 0.2089062,-0.50395 0.4505789,-0.993684 0.723468,-1.46606 0.2502154,-0.427494 0.5256201,-0.839737 0.824757,-1.234549 z"
       sodipodi:nodetypes="cccccccccccccccccc" />
    <path
       id="path879"
       style="fill:#ff3939;fill-opacity:1;stroke:none;stroke-width:10.6248;stroke-linecap:round"
       d="M 88.041016,49.800781 85.533203,39.773438 c -12.40647,-4.348936 -27.517538,0.884688 -35.685547,8.435546 l 2.621094,10.484375 z"
       transform="scale(0.26458333)" />
  </g>
</svg>
